# xmcd CD database file
#
# Track frame offsets:
#	150
#	13450
#	27649
#	41549
#	52275
#	68272
#	82663
#	98867
#	111479
#	124879
#	145904
#	157241
#	175106
#	187840
#	197729
#
# Disc length: 2840 seconds
#
# Revision: 0
# Processed by: cddbd v1.5.1PL0 Copyright (c) Steve Scherf et al.
# Submitted via: CDex 1.51
#
DISCID=d30b160f
DTITLE=The Generators - That's It
DYEAR=2005
DGENRE=Blues
TTITLE0=Do it to me
TTITLE1=She's sweet
TTITLE2=Singing the blues
TTITLE3=Our love is mad
TTITLE4=Follow the rule
TTITLE5=Hot beans and taco's
TTITLE6=Neighbour (tend to your business)
TTITLE7=Pokerface
TTITLE8=Pleadin' for love
TTITLE9=Where did I go wrong
TTITLE10=Louise
TTITLE11=I cried last night
TTITLE12=Long skirt baby blues
TTITLE13=Congo Mombo
TTITLE14=I don't know why
EXTD=YEAR: 2005
EXTT0=
EXTT1=
EXTT2=
EXTT3=
EXTT4=
EXTT5=
EXTT6=
EXTT7=
EXTT8=
EXTT9=
EXTT10=
EXTT11=
EXTT12=
EXTT13=
EXTT14=
PLAYORDER=
